# xmcd
#
# Track frame offsets:
#	150
#	21060
#	36675
#	64080
#	76282
#	99540
#	117582
#	140822
#	158122
#	187552
#	208430
#	229320
#	244647
#
# Disc length: 3649 seconds
#
# Revision: 1
# Processed by: cddbd v1.5.2PL0 Copyright (c) Steve Scherf et al.
# Submitted via: audiograbber 1.83.01
#
DISCID=b80e3f0d
DTITLE=Nick Holt - You Better Watch Yourself
DYEAR=1900
DGENRE=Blues
TTITLE0=The Town I Live In
TTITLE1=Yak, Yak
TTITLE2=You Better Watch Yourself
TTITLE3=Need Some Good Lovin'
TTITLE4=One Room Country Shack
TTITLE5=Yo Baby, You Call Me
TTITLE6=Standing In My Doorway
TTITLE7=Change My Mind
TTITLE8=Got To Be Some Changes
TTITLE9=Walk Up This Morning
TTITLE10=Sittin' In My Bedroom
TTITLE11=When You Got A Headache
TTITLE12=As The Years Go Passing By
EXTD=
EXTT0=
EXTT1=
EXTT2=
EXTT3=
EXTT4=
EXTT5=
EXTT6=
EXTT7=
EXTT8=
EXTT9=
EXTT10=
EXTT11=
EXTT12=
PLAYORDER=
